<svg width="192" height="39" viewBox="0 0 192 39" fill="none" xmlns="http://www.w3.org/2000/svg">
<path d="M34.6136 2.31177C34.0562 2.31177 33.5465 2.56837 33.2121 3.01737C31.9698 4.65307 31.0779 5.85577 30.4409 6.75377C30.4409 6.76987 30.4249 6.76987 30.4249 6.78587C30.409 6.80187 30.3931 6.81797 30.3772 6.83397C28.8801 8.91867 28.7845 9.23937 28.8164 9.36767L29.0234 18.4923C29.0234 18.4923 29.0234 18.4923 29.0234 18.5084C29.0234 18.5565 29.0234 18.6206 29.0234 18.6687C29.0234 18.7168 29.0234 18.765 29.0234 18.797C29.0075 18.8772 28.9756 18.9734 28.9279 19.0536C28.8801 19.1338 28.8323 19.1979 28.7527 19.246C28.689 19.3102 28.6093 19.3423 28.5138 19.3904C28.4978 19.4064 28.466 19.4064 28.4501 19.4224C28.4182 19.4224 28.4023 19.4385 28.3704 19.4385C28.3067 19.4545 28.243 19.4706 28.1475 19.4866L27.8289 19.5507C27.813 19.5507 27.813 19.5507 27.7971 19.5507C27.7652 19.5507 27.7175 19.5507 27.7015 19.5187C27.6697 19.5026 27.6219 19.4545 27.6219 19.4224L26.3796 15.6539C26.3637 15.6058 26.3318 15.5737 26.2841 15.5577H26.2681C26.2363 15.5577 26.1885 15.5737 26.1726 15.6058L18.7827 25.2436C18.7668 25.2596 18.7509 25.2757 18.719 25.2757C18.7031 25.2757 18.7031 25.2757 18.6871 25.2757C18.6234 25.2596 18.5597 25.2436 18.496 25.2115C18.4483 25.1955 18.4005 25.1634 18.3527 25.1474H18.3368H18.3208C18.2731 25.1313 18.2412 25.0993 18.1934 25.0672C17.9068 24.9068 17.5882 24.6663 17.3175 24.3776C17.2538 24.3135 17.2219 24.1852 17.2219 24.0569C17.2219 24.0248 17.2378 23.9928 17.2378 23.9607C17.2378 23.9286 17.2538 23.9126 17.2697 23.8805V23.8645C17.2856 23.8324 17.3015 23.8164 17.3175 23.7843L21.6495 18.1395C21.7769 17.9792 21.8087 17.7707 21.7291 17.5943C21.6654 17.4019 21.5061 17.2736 21.315 17.2415C21.315 17.2415 21.2991 17.2415 21.2832 17.2415C21.2513 17.2415 21.2354 17.2415 21.2035 17.2415C21.0283 17.2415 20.8691 17.3217 20.7576 17.466L16.9034 22.4854L16.8078 22.6137C16.76 22.6618 16.6963 22.6938 16.6326 22.6938C16.5849 22.6938 16.553 22.6778 16.5212 22.6618C16.4734 22.6297 16.4415 22.5655 16.4256 22.5335L16.4097 22.5014L15.8363 21.0742C15.7726 20.9138 15.8045 20.7374 15.9 20.5931L16.0115 20.4488L20.3913 14.7399C20.5028 14.5955 20.5346 14.4031 20.4868 14.2427C20.4868 14.2267 20.4868 14.2107 20.4709 14.1946C20.4072 14.0022 20.2479 13.8739 20.0409 13.8418C20.009 13.8418 19.9931 13.8418 19.9613 13.8258C19.7861 13.8258 19.6109 13.8899 19.4994 14.0343L15.4859 19.214C15.4222 19.2781 15.3426 19.3262 15.263 19.3102C15.1674 19.2941 15.1037 19.23 15.0718 19.1498L14.6737 18.1556L14.4985 17.7226C14.4507 17.6104 14.4507 17.4821 14.4985 17.3698C14.5144 17.3217 14.5463 17.2896 14.5622 17.2415L18.8623 11.6449L18.942 11.5326C19.0057 11.4364 19.0216 11.3241 18.9738 11.2119C18.9579 11.0515 18.8783 10.9232 18.7509 10.827C18.6553 10.7629 18.5597 10.7148 18.4483 10.7148C18.2571 10.6987 18.0819 10.7789 17.9545 10.9393L14.1163 15.9747C14.0844 16.0067 14.0526 16.0388 14.0048 16.0388C13.9729 16.0388 13.957 16.0548 13.9251 16.0388C13.8455 16.0228 13.7818 15.9747 13.7659 15.9105L13.4314 15.0606L13.4155 15.0285C13.1766 14.4512 13.2722 13.7937 13.6544 13.2966L22.1432 2.29577H14.4826L1.75731 18.8612C1.70953 18.9253 1.67769 18.9895 1.66176 19.0536C1.66176 19.0536 1.66176 19.0696 1.64583 19.0696C1.64583 19.0857 1.6299 19.1017 1.6299 19.1338C1.59805 19.23 1.59805 19.3423 1.61398 19.4385C1.6299 19.5507 1.67769 19.6469 1.74139 19.7432L14.4507 36.4208H19.2605C19.8179 36.4208 20.3276 36.1643 20.662 35.7152C21.9043 34.0796 22.7962 32.8768 23.4332 31.9788C23.4332 31.9628 23.4492 31.9628 23.4492 31.9467C23.4651 31.9307 23.481 31.9147 23.4969 31.8986C24.994 29.8139 25.0896 29.4932 25.0577 29.3649L24.8507 20.2403C24.8507 20.2403 24.8507 20.2403 24.8507 20.2242C24.8507 20.112 24.8507 20.0318 24.8507 19.9677V19.9035V19.8875C24.9144 19.5988 25.1533 19.3743 25.4877 19.2942C25.5514 19.2781 25.6152 19.2621 25.7107 19.246L26.0292 19.1819C26.0452 19.1819 26.0452 19.1819 26.0611 19.1819C26.093 19.1819 26.1407 19.1819 26.1567 19.214C26.1885 19.23 26.2363 19.2781 26.2363 19.3102L27.4786 23.0787C27.4945 23.1268 27.5263 23.1589 27.5741 23.1749C27.59 23.1749 27.59 23.1749 27.606 23.1749C27.6378 23.1749 27.6697 23.1589 27.7015 23.1268L35.0914 13.489C35.1073 13.473 35.1233 13.457 35.1551 13.457C35.171 13.457 35.171 13.457 35.187 13.457C35.2507 13.473 35.3144 13.489 35.3781 13.5211C35.4259 13.5371 35.4736 13.5532 35.5214 13.5853C35.5373 13.5853 35.5373 13.5853 35.5373 13.6013H35.5533C35.601 13.6173 35.6329 13.6494 35.6807 13.6815C35.9674 13.8418 36.2859 14.0824 36.5566 14.371C36.6203 14.4352 36.6522 14.5635 36.6522 14.6918C36.6522 14.7238 36.6363 14.7559 36.6363 14.788C36.6363 14.82 36.6203 14.8361 36.6044 14.8682V14.8842C36.5885 14.9163 36.5726 14.9323 36.5566 14.9644L32.2246 20.6091C32.0972 20.7695 32.0654 20.978 32.145 21.1543C32.2087 21.3468 32.368 21.4751 32.5591 21.5071C32.5591 21.5071 32.575 21.5071 32.5909 21.5071C32.6228 21.5071 32.6387 21.5071 32.6706 21.5071C32.8458 21.5071 33.005 21.427 33.1165 21.2826L36.9707 16.2633L37.0663 16.135C37.1141 16.0869 37.1778 16.0548 37.2415 16.0548C37.2892 16.0548 37.3211 16.0709 37.353 16.0869C37.4007 16.119 37.4326 16.1831 37.4485 16.2152L37.4644 16.2473L38.0378 17.6745C38.1015 17.8349 38.0696 18.0113 37.9741 18.1556L37.8626 18.2999L33.4828 24.0088C33.3713 24.1531 33.3395 24.3456 33.3873 24.5059C33.3873 24.522 33.3873 24.538 33.4032 24.554C33.4669 24.7465 33.6262 24.8748 33.8332 24.9068C33.8651 24.9068 33.881 24.9068 33.9128 24.9229C34.088 24.9229 34.2632 24.8587 34.3747 24.7144L38.3722 19.5187C38.436 19.4545 38.5156 19.4064 38.5952 19.4224C38.6908 19.4385 38.7545 19.5026 38.7863 19.5828L39.1845 20.577L39.3597 21.01C39.4075 21.1223 39.4075 21.2506 39.3597 21.3628C39.3438 21.4109 39.3119 21.443 39.296 21.4911L34.9958 27.0878C34.8844 27.1679 34.7888 27.2642 34.8366 27.3924L34.8844 27.5047C34.9003 27.649 34.9799 27.7933 35.1073 27.8896C35.2029 27.9697 35.3144 28.0018 35.4259 28.0018C35.601 28.0018 35.7762 27.9216 35.9036 27.7773L39.7419 22.7419C39.7738 22.7099 39.8056 22.6778 39.8534 22.6778C39.8853 22.6778 39.9012 22.6618 39.933 22.6778C40.0127 22.6938 40.0764 22.7419 40.0923 22.8061L40.4268 23.656L40.4427 23.672C40.6816 24.2493 40.586 24.9068 40.2038 25.4039L31.715 36.4048H39.3756L52.1009 19.8394C52.1168 19.8234 52.1327 19.8073 52.1327 19.7752C52.1486 19.7592 52.1486 19.7432 52.1646 19.7271C52.1646 19.7111 52.1646 19.7111 52.1805 19.6951C52.1964 19.663 52.2123 19.6469 52.2123 19.6149C52.2601 19.4866 52.2601 19.3423 52.2283 19.214C52.2283 19.1979 52.2283 19.1819 52.2123 19.1498C52.2123 19.1338 52.1964 19.1178 52.1964 19.1017C52.1964 19.0857 52.1805 19.0696 52.1805 19.0536C52.1805 19.0376 52.1646 19.0215 52.1486 19.0055C52.1327 18.9895 52.1327 18.9734 52.1168 18.9414L39.4075 2.26367H34.6136V2.31177Z" fill="url(#paint0_linear_722_165)"/>
<path d="M67.3737 24.3465C66.4729 24.3465 65.6431 24.1805 64.8845 23.8486C64.1258 23.5167 63.462 23.0505 62.893 22.4499C62.3398 21.8493 61.9052 21.1539 61.5891 20.3636C61.2888 19.5734 61.1387 18.7199 61.1387 17.8032V17.3765C61.1387 16.4756 61.2888 15.63 61.5891 14.8398C61.8894 14.0495 62.3082 13.3541 62.8456 12.7535C63.3988 12.1529 64.0468 11.6867 64.7896 11.3548C65.5483 11.0071 66.3859 10.8332 67.3026 10.8332C68.2667 10.8332 69.1439 11.0387 69.9341 11.4496C70.7244 11.8447 71.3724 12.469 71.8781 13.3225C72.3839 14.176 72.6684 15.2823 72.7316 16.6415L71.7833 15.1243V6.61328H74.0592V23.9197H72.2575V18.3011H72.9213C72.8581 19.7393 72.5578 20.9089 72.0204 21.8098C71.483 22.6948 70.8034 23.3428 69.9816 23.7538C69.1755 24.1489 68.3062 24.3465 67.3737 24.3465ZM67.6819 22.355C68.4564 22.355 69.1597 22.1812 69.7919 21.8335C70.4241 21.4858 70.9299 20.9879 71.3092 20.3399C71.6885 19.6761 71.8781 18.9017 71.8781 18.0166V16.926C71.8781 16.0568 71.6806 15.3218 71.2855 14.7212C70.9061 14.1048 70.3925 13.6386 69.7445 13.3225C69.1123 12.9906 68.4169 12.8246 67.6582 12.8246C66.8206 12.8246 66.0777 13.0222 65.4297 13.4173C64.7975 13.8125 64.2997 14.3656 63.9362 15.0768C63.5884 15.7881 63.4146 16.6257 63.4146 17.5898C63.4146 18.5539 63.5963 19.3995 63.9599 20.1265C64.3234 20.8378 64.8291 21.3909 65.4771 21.7861C66.1251 22.1654 66.8601 22.355 67.6819 22.355Z" fill="white"/>
<path d="M82.2733 24.3453C81.1669 24.3453 80.2107 24.1556 79.4047 23.7763C78.5986 23.397 77.9427 22.8991 77.4369 22.2827C76.9312 21.6505 76.5519 20.9472 76.299 20.1728C76.0619 19.3983 75.9434 18.6081 75.9434 17.802V17.3753C75.9434 16.5534 76.0619 15.7553 76.299 14.9808C76.5519 14.2064 76.9312 13.511 77.4369 12.8946C77.9427 12.2624 78.5828 11.7645 79.3572 11.401C80.1475 11.0217 81.0721 10.832 82.131 10.832C83.506 10.832 84.6361 11.1323 85.5212 11.7329C86.4221 12.3177 87.0859 13.0763 87.5126 14.0088C87.9551 14.9413 88.1764 15.937 88.1764 16.996V18.0154H76.9391V16.3084H86.5169L85.9953 17.233C85.9953 16.3321 85.8531 15.5577 85.5686 14.9097C85.2841 14.2459 84.8574 13.7322 84.2884 13.3687C83.7194 13.0052 83.0003 12.8234 82.131 12.8234C81.2301 12.8234 80.4794 13.0289 79.8788 13.4398C79.294 13.8508 78.8515 14.4118 78.5512 15.1231C78.2667 15.8343 78.1245 16.6561 78.1245 17.5886C78.1245 18.4895 78.2667 19.3035 78.5512 20.0305C78.8515 20.7417 79.3098 21.3107 79.9262 21.7374C80.5426 22.1484 81.325 22.3538 82.2733 22.3538C83.269 22.3538 84.075 22.1326 84.6914 21.69C85.3236 21.2475 85.7029 20.7338 85.8294 20.149H87.963C87.7892 21.0183 87.4415 21.7691 86.9199 22.4013C86.3984 23.0335 85.7425 23.5155 84.9522 23.8474C84.162 24.1793 83.269 24.3453 82.2733 24.3453Z" fill="white"/>
<path d="M92.4768 23.9196L88.1621 11.2598H90.5328L94.7527 23.9196H92.4768ZM93.0458 23.9196V22.1179H95.7959V23.9196H93.0458ZM94.1363 23.9196L97.811 11.2598H100.04L96.2937 23.9196H94.1363Z" fill="white"/>
<path d="M109.182 24.3683C107.617 24.3683 106.273 24.0996 105.151 23.5622C104.029 23.009 103.112 22.2899 102.401 21.4048C101.69 20.504 101.161 19.5399 100.812 18.5125C100.48 17.4694 100.314 16.4579 100.314 15.478V14.9564C100.314 13.8817 100.488 12.8227 100.836 11.7796C101.184 10.7207 101.714 9.76454 102.425 8.91104C103.152 8.05754 104.061 7.37794 105.151 6.87224C106.258 6.35064 107.562 6.08984 109.063 6.08984C110.628 6.08984 112.011 6.38224 113.212 6.96704C114.413 7.55184 115.369 8.36575 116.08 9.40895C116.807 10.4362 117.234 11.6453 117.361 13.0361H113.449C113.338 12.3407 113.085 11.748 112.69 11.258C112.295 10.7681 111.781 10.3888 111.149 10.1201C110.533 9.85145 109.837 9.71715 109.063 9.71715C108.289 9.71715 107.601 9.85145 107 10.1201C106.4 10.3888 105.894 10.7681 105.483 11.258C105.088 11.748 104.78 12.3328 104.559 13.0124C104.353 13.6762 104.25 14.419 104.25 15.2409C104.25 16.047 104.353 16.7898 104.559 17.4694C104.78 18.1332 105.096 18.718 105.507 19.2238C105.934 19.7137 106.455 20.093 107.072 20.3617C107.688 20.6146 108.391 20.741 109.182 20.741C110.383 20.741 111.394 20.4486 112.216 19.8639C113.054 19.2791 113.56 18.473 113.733 17.4457H117.621C117.479 18.7101 117.052 19.8718 116.341 20.9307C115.646 21.9738 114.69 22.8115 113.473 23.4437C112.271 24.0601 110.841 24.3683 109.182 24.3683Z" fill="white"/>
<path d="M124.775 24.3692C123.637 24.3692 122.626 24.1953 121.741 23.8476C120.856 23.4841 120.105 22.9941 119.489 22.3777C118.888 21.7614 118.43 21.058 118.114 20.2678C117.798 19.4617 117.639 18.6162 117.639 17.7311V17.1858C117.639 16.2849 117.798 15.4315 118.114 14.6254C118.446 13.8035 118.92 13.0844 119.536 12.468C120.168 11.8516 120.927 11.3696 121.812 11.0219C122.697 10.6584 123.685 10.4766 124.775 10.4766C125.898 10.4766 126.893 10.6584 127.763 11.0219C128.648 11.3696 129.398 11.8516 130.015 12.468C130.631 13.0844 131.105 13.8035 131.437 14.6254C131.769 15.4315 131.935 16.2849 131.935 17.1858V17.7311C131.935 18.6162 131.777 19.4617 131.461 20.2678C131.145 21.058 130.679 21.7614 130.062 22.3777C129.462 22.9941 128.719 23.4841 127.834 23.8476C126.949 24.1953 125.929 24.3692 124.775 24.3692ZM124.775 21.1687C125.518 21.1687 126.135 21.0106 126.625 20.6945C127.115 20.3784 127.486 19.9359 127.739 19.3669C128.008 18.7979 128.142 18.1657 128.142 17.4703C128.142 16.7275 128.008 16.0795 127.739 15.5263C127.47 14.9573 127.083 14.5069 126.577 14.175C126.087 13.8431 125.487 13.6771 124.775 13.6771C124.08 13.6771 123.479 13.8431 122.974 14.175C122.468 14.5069 122.081 14.9573 121.812 15.5263C121.559 16.0795 121.433 16.7275 121.433 17.4703C121.433 18.1657 121.559 18.7979 121.812 19.3669C122.065 19.9359 122.444 20.3784 122.95 20.6945C123.456 21.0106 124.064 21.1687 124.775 21.1687Z" fill="white"/>
<path d="M133.041 23.9181V10.9264H136.052V16.4977H135.839C135.839 15.1701 136.005 14.0637 136.337 13.1787C136.684 12.2936 137.206 11.6298 137.901 11.1872C138.597 10.7447 139.442 10.5234 140.438 10.5234H140.604C142.121 10.5234 143.275 11.0213 144.065 12.017C144.871 12.9969 145.274 14.4905 145.274 16.4977V23.9181H141.481V16.2843C141.481 15.5889 141.276 15.0199 140.865 14.5774C140.454 14.1349 139.901 13.9136 139.205 13.9136C138.494 13.9136 137.917 14.1428 137.475 14.6011C137.048 15.0436 136.835 15.6284 136.835 16.3555V23.9181H133.041Z" fill="white"/>
<path d="M147.25 23.9185V10.8083C147.25 9.3068 147.677 8.1926 148.53 7.4656C149.384 6.7385 150.64 6.375 152.3 6.375H153.959V9.2199H152.134C151.707 9.2199 151.375 9.3384 151.138 9.5755C150.901 9.8126 150.783 10.1445 150.783 10.5712V23.9185H147.25ZM145.709 13.9614V11.1876H154.149V13.9614H145.709Z" fill="white"/>
<path d="M163.792 23.9197V9.17368L164.835 9.97968H160.402V6.61328H167.657V23.9197H163.792Z" fill="white"/>
<path d="M169.357 23.9194V19.6758H173.53V23.9194H169.357Z" fill="white"/>
<path d="M182.217 24.3683C180.842 24.3683 179.665 24.147 178.685 23.7045C177.705 23.2461 176.907 22.6297 176.29 21.8553C175.69 21.0808 175.239 20.1879 174.939 19.1763C174.654 18.149 174.512 17.0664 174.512 15.9284V14.5771C174.512 12.9966 174.789 11.5662 175.342 10.286C175.895 9.00584 176.741 7.98644 177.879 7.22784C179.017 6.46914 180.463 6.08984 182.217 6.08984C183.971 6.08984 185.41 6.46914 186.532 7.22784C187.67 7.98644 188.515 9.00584 189.069 10.286C189.622 11.5662 189.898 12.9966 189.898 14.5771V15.9284C189.898 17.0664 189.748 18.149 189.448 19.1763C189.163 20.1879 188.713 21.0808 188.097 21.8553C187.496 22.6297 186.706 23.2461 185.726 23.7045C184.762 24.147 183.592 24.3683 182.217 24.3683ZM182.217 20.7884C183.497 20.7884 184.446 20.3459 185.062 19.4608C185.694 18.5599 186.01 17.1691 186.01 15.2883C186.01 13.2969 185.686 11.8665 185.038 10.9973C184.406 10.1122 183.466 9.66965 182.217 9.66965C180.937 9.66965 179.981 10.1122 179.349 10.9973C178.716 11.8665 178.4 13.2811 178.4 15.2409C178.4 17.1375 178.708 18.5362 179.325 19.4371C179.957 20.338 180.921 20.7884 182.217 20.7884Z" fill="white"/>
<path d="M63.9435 35.9348C63.6172 35.9348 63.319 35.8757 63.049 35.7575C62.7845 35.6338 62.5539 35.465 62.357 35.2512C62.1657 35.0318 62.0166 34.7843 61.9097 34.5086C61.8084 34.2273 61.7578 33.9291 61.7578 33.6141V33.4959C61.7578 33.1921 61.8084 32.9024 61.9097 32.6267C62.011 32.3454 62.1544 32.0979 62.3401 31.8841C62.5314 31.6647 62.7592 31.4931 63.0236 31.3693C63.2937 31.2399 63.5947 31.1752 63.9266 31.1752C64.3035 31.1752 64.6355 31.2568 64.9224 31.42C65.2093 31.5831 65.44 31.8194 65.6144 32.1288C65.7888 32.4326 65.8816 32.8068 65.8929 33.2512L65.6144 32.728V29.6309H66.2473V35.7913H65.741V33.8082H65.9435C65.9322 34.2751 65.8338 34.6689 65.6481 34.9896C65.4681 35.3047 65.229 35.5409 64.9308 35.6985C64.6383 35.856 64.3092 35.9348 63.9435 35.9348ZM64.0279 35.3778C64.3317 35.3778 64.6045 35.3103 64.8464 35.1753C65.094 35.0402 65.2881 34.849 65.4287 34.6014C65.5694 34.3483 65.6397 34.0585 65.6397 33.7322V33.3271C65.6397 33.0121 65.5694 32.7364 65.4287 32.5001C65.2881 32.2582 65.094 32.0698 64.8464 31.9347C64.6045 31.7997 64.3288 31.7322 64.0194 31.7322C63.6875 31.7322 63.3978 31.8138 63.1502 31.9769C62.9083 32.1345 62.7198 32.3511 62.5848 32.6267C62.4554 32.9024 62.3907 33.2118 62.3907 33.555C62.3907 33.9094 62.4582 34.2245 62.5933 34.5002C62.7283 34.7758 62.9196 34.9924 63.1671 35.1499C63.4146 35.3018 63.7016 35.3778 64.0279 35.3778Z" fill="#C0C0CF"/>
<path d="M74.8893 35.9354C74.5067 35.9354 74.1748 35.8707 73.8935 35.7413C73.6122 35.6062 73.3815 35.429 73.2015 35.2096C73.0215 34.9846 72.8865 34.7342 72.7964 34.4586C72.712 34.1829 72.6699 33.8988 72.6699 33.6062V33.4881C72.6699 33.2012 72.712 32.9199 72.7964 32.6442C72.8865 32.3685 73.0215 32.121 73.2015 31.9016C73.3815 31.6822 73.6066 31.5078 73.8766 31.3784C74.1523 31.2433 74.473 31.1758 74.8386 31.1758C75.3056 31.1758 75.6938 31.2799 76.0032 31.4881C76.3183 31.6962 76.5546 31.9635 76.7121 32.2898C76.8696 32.6104 76.9484 32.9564 76.9484 33.3277V33.6569H72.9568V33.1674H76.5095L76.3492 33.4121C76.3492 33.0802 76.2901 32.7905 76.172 32.5429C76.0595 32.2898 75.8907 32.0929 75.6657 31.9522C75.4462 31.8059 75.1706 31.7328 74.8386 31.7328C74.4898 31.7328 74.2001 31.8144 73.9694 31.9775C73.7388 32.1407 73.5644 32.3573 73.4462 32.6273C73.3337 32.8974 73.2775 33.204 73.2775 33.5472C73.2775 33.8847 73.3337 34.1941 73.4462 34.4754C73.5644 34.7511 73.7416 34.9705 73.9779 35.1337C74.2198 35.2968 74.5236 35.3784 74.8893 35.3784C75.2775 35.3784 75.5925 35.2912 75.8344 35.1168C76.0764 34.9368 76.2254 34.7258 76.2817 34.4839H76.8724C76.8162 34.7821 76.698 35.0408 76.518 35.2603C76.338 35.474 76.1101 35.64 75.8344 35.7581C75.5588 35.8763 75.2437 35.9354 74.8893 35.9354Z" fill="#C0C0CF"/>
<path d="M84.2727 35.7923L82.7031 31.3281H83.3529L84.9057 35.7923H84.2727ZM84.4415 35.7923V35.2775H85.2432V35.7923H84.4415ZM84.7875 35.7923L86.1462 31.3281H86.7707L85.3867 35.7923H84.7875Z" fill="#C0C0CF"/>
<path d="M94.8418 35.9354C94.4648 35.9354 94.1357 35.8707 93.8544 35.7413C93.5787 35.6062 93.3481 35.4262 93.1624 35.2012C92.9768 34.9705 92.8361 34.7174 92.7405 34.4417C92.6505 34.166 92.6055 33.8875 92.6055 33.6062V33.4881C92.6055 33.2012 92.6505 32.9227 92.7405 32.6526C92.8361 32.377 92.9768 32.1294 93.1624 31.91C93.3481 31.685 93.5787 31.5078 93.8544 31.3784C94.1357 31.2433 94.4592 31.1758 94.8249 31.1758C95.1962 31.1758 95.5253 31.2433 95.8122 31.3784C96.1048 31.5134 96.3411 31.7047 96.5211 31.9522C96.7011 32.1998 96.808 32.4923 96.8418 32.8299H96.2342C96.1835 32.5204 96.0373 32.2645 95.7953 32.0619C95.5591 31.8538 95.2356 31.7497 94.8249 31.7497C94.4704 31.7497 94.1751 31.8313 93.9388 31.9944C93.7081 32.1519 93.5337 32.3685 93.4156 32.6442C93.2974 32.9142 93.2384 33.2152 93.2384 33.5472C93.2384 33.8735 93.2974 34.1773 93.4156 34.4586C93.5337 34.7342 93.7109 34.9565 93.9472 35.1252C94.1835 35.2884 94.4817 35.37 94.8418 35.37C95.1174 35.37 95.3565 35.3221 95.5591 35.2265C95.7672 35.1252 95.9332 34.9902 96.057 34.8214C96.1864 34.6527 96.2623 34.467 96.2848 34.2645H96.8924C96.8699 34.602 96.763 34.8974 96.5717 35.1505C96.3861 35.3981 96.1442 35.5922 95.846 35.7328C95.5478 35.8679 95.2131 35.9354 94.8418 35.9354Z" fill="#C0C0CF"/>
<path d="M105.197 35.9354C104.814 35.9354 104.476 35.8707 104.184 35.7413C103.897 35.6062 103.652 35.429 103.45 35.2096C103.253 34.9846 103.101 34.7342 102.994 34.4586C102.893 34.1829 102.842 33.9016 102.842 33.6147V33.4965C102.842 33.2096 102.896 32.9283 103.002 32.6526C103.109 32.3713 103.264 32.121 103.467 31.9016C103.669 31.6822 103.914 31.5078 104.201 31.3784C104.493 31.2433 104.825 31.1758 105.197 31.1758C105.574 31.1758 105.905 31.2433 106.192 31.3784C106.485 31.5078 106.732 31.6822 106.935 31.9016C107.138 32.121 107.289 32.3713 107.391 32.6526C107.498 32.9283 107.551 33.2096 107.551 33.4965V33.6147C107.551 33.9016 107.5 34.1829 107.399 34.4586C107.298 34.7342 107.146 34.9846 106.943 35.2096C106.747 35.429 106.502 35.6062 106.209 35.7413C105.917 35.8707 105.579 35.9354 105.197 35.9354ZM105.197 35.37C105.568 35.37 105.88 35.2884 106.133 35.1252C106.392 34.9565 106.589 34.737 106.724 34.467C106.859 34.1913 106.927 33.8875 106.927 33.5556C106.927 33.218 106.856 32.9142 106.716 32.6442C106.581 32.3685 106.384 32.1519 106.125 31.9944C105.866 31.8313 105.557 31.7497 105.197 31.7497C104.842 31.7497 104.536 31.8313 104.277 31.9944C104.018 32.1519 103.818 32.3685 103.678 32.6442C103.543 32.9142 103.475 33.218 103.475 33.5556C103.475 33.8875 103.543 34.1913 103.678 34.467C103.813 34.737 104.007 34.9565 104.26 35.1252C104.519 35.2884 104.831 35.37 105.197 35.37Z" fill="#C0C0CF"/>
<path d="M113.982 35.7926V31.3284H114.489V33.2019H114.387C114.387 32.7855 114.449 32.4283 114.573 32.1301C114.697 31.832 114.883 31.6013 115.13 31.4381C115.378 31.275 115.69 31.1934 116.067 31.1934H116.092C116.655 31.1934 117.074 31.3706 117.35 31.7251C117.625 32.0739 117.763 32.5661 117.763 33.2019V35.7926H117.139V33.0668C117.139 32.6787 117.032 32.3664 116.818 32.1301C116.604 31.8938 116.306 31.7757 115.923 31.7757C115.53 31.7757 115.212 31.8995 114.97 32.147C114.733 32.3889 114.615 32.7096 114.615 33.109V35.7926H113.982Z" fill="#C0C0CF"/>
<path d="M124.61 35.7912V30.981C124.61 30.5141 124.731 30.1681 124.973 29.9431C125.215 29.718 125.578 29.6055 126.062 29.6055H126.627V30.1456H125.944C125.707 30.1456 125.527 30.2075 125.404 30.3312C125.28 30.455 125.218 30.6294 125.218 30.8545V35.7912H124.61ZM123.961 31.8502V31.3608H126.72V31.8502H123.961Z" fill="#C0C0CF"/>
<path d="M135.093 35.9348C134.699 35.9348 134.353 35.8476 134.055 35.6732C133.762 35.4988 133.532 35.254 133.363 34.939C133.2 34.6239 133.113 34.2611 133.101 33.8504H133.295V35.7913H132.789V29.6309H133.422V32.7111L133.177 33.2765C133.189 32.8264 133.279 32.4467 133.447 32.1373C133.622 31.8222 133.852 31.5831 134.139 31.42C134.432 31.2568 134.764 31.1752 135.135 31.1752C135.461 31.1752 135.757 31.2371 136.021 31.3609C136.286 31.4847 136.511 31.6534 136.696 31.8672C136.888 32.081 137.031 32.3285 137.127 32.6098C137.228 32.8855 137.279 33.1781 137.279 33.4875V33.6056C137.279 33.9094 137.228 34.202 137.127 34.4833C137.025 34.7589 136.879 35.0065 136.688 35.2259C136.502 35.4453 136.274 35.6197 136.004 35.7491C135.734 35.8729 135.43 35.9348 135.093 35.9348ZM135.025 35.3778C135.363 35.3778 135.653 35.2962 135.895 35.1331C136.136 34.9699 136.322 34.7505 136.452 34.4748C136.581 34.1992 136.646 33.8897 136.646 33.5466C136.646 33.1978 136.578 32.8883 136.443 32.6183C136.314 32.3426 136.125 32.126 135.878 31.9685C135.636 31.811 135.352 31.7322 135.025 31.7322C134.722 31.7322 134.446 31.7997 134.198 31.9347C133.951 32.0698 133.754 32.261 133.608 32.5086C133.467 32.7505 133.397 33.0374 133.397 33.3693V33.7828C133.397 34.0979 133.467 34.3764 133.608 34.6183C133.754 34.8546 133.951 35.0402 134.198 35.1753C134.446 35.3103 134.722 35.3778 135.025 35.3778Z" fill="#C0C0CF"/>
<path d="M145.534 35.9348C145.207 35.9348 144.909 35.8757 144.639 35.7575C144.375 35.6338 144.144 35.465 143.947 35.2512C143.756 35.0318 143.607 34.7843 143.5 34.5086C143.399 34.2273 143.348 33.9291 143.348 33.6141V33.4959C143.348 33.1921 143.399 32.9024 143.5 32.6267C143.601 32.3454 143.745 32.0979 143.93 31.8841C144.122 31.6647 144.35 31.4931 144.614 31.3693C144.884 31.2399 145.185 31.1752 145.517 31.1752C145.894 31.1752 146.226 31.2568 146.513 31.42C146.8 31.5831 147.03 31.8194 147.205 32.1288C147.379 32.4326 147.472 32.8068 147.483 33.2512L147.205 32.728V29.6309H147.838V35.7913H147.331V33.8082H147.534C147.523 34.2751 147.424 34.6689 147.238 34.9896C147.058 35.3047 146.819 35.5409 146.521 35.6985C146.229 35.856 145.899 35.9348 145.534 35.9348ZM145.618 35.3778C145.922 35.3778 146.195 35.3103 146.437 35.1753C146.684 35.0402 146.878 34.849 147.019 34.6014C147.16 34.3483 147.23 34.0585 147.23 33.7322V33.3271C147.23 33.0121 147.16 32.7364 147.019 32.5001C146.878 32.2582 146.684 32.0698 146.437 31.9347C146.195 31.7997 145.919 31.7322 145.61 31.7322C145.278 31.7322 144.988 31.8138 144.741 31.9769C144.499 32.1345 144.31 32.3511 144.175 32.6267C144.046 32.9024 143.981 33.2118 143.981 33.555C143.981 33.9094 144.049 34.2245 144.184 34.5002C144.319 34.7758 144.51 34.9924 144.757 35.1499C145.005 35.3018 145.292 35.3778 145.618 35.3778Z" fill="#C0C0CF"/>
<path d="M154.486 35.7924V34.957H155.28V35.7924H154.486Z" fill="#C0C0CF"/>
<path d="M163.681 35.9354C163.304 35.9354 162.975 35.8707 162.694 35.7413C162.418 35.6062 162.188 35.4262 162.002 35.2012C161.816 34.9705 161.676 34.7174 161.58 34.4417C161.49 34.166 161.445 33.8875 161.445 33.6062V33.4881C161.445 33.2012 161.49 32.9227 161.58 32.6526C161.676 32.377 161.816 32.1294 162.002 31.91C162.188 31.685 162.418 31.5078 162.694 31.3784C162.975 31.2433 163.299 31.1758 163.664 31.1758C164.036 31.1758 164.365 31.2433 164.652 31.3784C164.944 31.5134 165.181 31.7047 165.361 31.9522C165.541 32.1998 165.648 32.4923 165.681 32.8299H165.074C165.023 32.5204 164.877 32.2645 164.635 32.0619C164.399 31.8538 164.075 31.7497 163.664 31.7497C163.31 31.7497 163.015 31.8313 162.778 31.9944C162.548 32.1519 162.373 32.3685 162.255 32.6442C162.137 32.9142 162.078 33.2152 162.078 33.5472C162.078 33.8735 162.137 34.1773 162.255 34.4586C162.373 34.7342 162.551 34.9565 162.787 35.1252C163.023 35.2884 163.321 35.37 163.681 35.37C163.957 35.37 164.196 35.3221 164.399 35.2265C164.607 35.1252 164.773 34.9902 164.897 34.8214C165.026 34.6527 165.102 34.467 165.124 34.2645H165.732C165.709 34.602 165.603 34.8974 165.411 35.1505C165.226 35.3981 164.984 35.5922 164.686 35.7328C164.387 35.8679 164.053 35.9354 163.681 35.9354Z" fill="#C0C0CF"/>
<path d="M174.036 35.9354C173.654 35.9354 173.316 35.8707 173.023 35.7413C172.737 35.6062 172.492 35.429 172.289 35.2096C172.092 34.9846 171.94 34.7342 171.834 34.4586C171.732 34.1829 171.682 33.9016 171.682 33.6147V33.4965C171.682 33.2096 171.735 32.9283 171.842 32.6526C171.949 32.3713 172.104 32.121 172.306 31.9016C172.509 31.6822 172.753 31.5078 173.04 31.3784C173.333 31.2433 173.665 31.1758 174.036 31.1758C174.413 31.1758 174.745 31.2433 175.032 31.3784C175.324 31.5078 175.572 31.6822 175.775 31.9016C175.977 32.121 176.129 32.3713 176.23 32.6526C176.337 32.9283 176.391 33.2096 176.391 33.4965V33.6147C176.391 33.9016 176.34 34.1829 176.239 34.4586C176.137 34.7342 175.986 34.9846 175.783 35.2096C175.586 35.429 175.341 35.6062 175.049 35.7413C174.756 35.8707 174.419 35.9354 174.036 35.9354ZM174.036 35.37C174.407 35.37 174.72 35.2884 174.973 35.1252C175.232 34.9565 175.429 34.737 175.564 34.467C175.699 34.1913 175.766 33.8875 175.766 33.5556C175.766 33.218 175.696 32.9142 175.555 32.6442C175.42 32.3685 175.223 32.1519 174.964 31.9944C174.706 31.8313 174.396 31.7497 174.036 31.7497C173.682 31.7497 173.375 31.8313 173.116 31.9944C172.858 32.1519 172.658 32.3685 172.517 32.6442C172.382 32.9142 172.315 33.218 172.315 33.5556C172.315 33.8875 172.382 34.1913 172.517 34.467C172.652 34.737 172.846 34.9565 173.099 35.1252C173.358 35.2884 173.67 35.37 174.036 35.37Z" fill="#C0C0CF"/>
<path d="M182.822 35.7926V31.32H183.328V33.2019H183.227C183.227 32.7912 183.283 32.4367 183.396 32.1386C183.514 31.8404 183.688 31.6097 183.919 31.4466C184.15 31.2778 184.442 31.1934 184.797 31.1934H184.822C185.176 31.1934 185.469 31.275 185.7 31.4381C185.93 31.6013 186.102 31.832 186.214 32.1301C186.327 32.4283 186.383 32.7855 186.383 33.2019H186.181C186.181 32.7912 186.237 32.4367 186.349 32.1386C186.468 31.8404 186.642 31.6097 186.873 31.4466C187.109 31.2778 187.404 31.1934 187.759 31.1934H187.784C188.138 31.1934 188.431 31.275 188.662 31.4381C188.898 31.6013 189.072 31.832 189.185 32.1301C189.303 32.4283 189.362 32.7855 189.362 33.2019V35.7926H188.729V33.0584C188.729 32.6646 188.634 32.3524 188.442 32.1217C188.251 31.891 187.975 31.7757 187.615 31.7757C187.244 31.7757 186.949 31.8967 186.729 32.1386C186.515 32.3749 186.409 32.6955 186.409 33.1006V35.7926H185.776V33.0584C185.776 32.6646 185.68 32.3524 185.489 32.1217C185.297 31.891 185.022 31.7757 184.662 31.7757C184.29 31.7757 183.995 31.8967 183.776 32.1386C183.562 32.3749 183.455 32.6955 183.455 33.1006V35.7926H182.822Z" fill="#C0C0CF"/>
<defs>
<linearGradient id="paint0_linear_722_165" x1="14.2211" y1="36.7228" x2="39.1052" y2="3.21257" gradientUnits="userSpaceOnUse">
<stop offset="0.0595419" stop-color="#504FF5"/>
<stop offset="0.9203" stop-color="#07DAFC"/>
</linearGradient>
</defs>
</svg>
